<mxfile host="Electron" agent="Mozilla/5.0 (Windows NT 10.0; Win64; x64) AppleWebKit/537.36 (KHTML, like Gecko) draw.io/26.0.7 Chrome/128.0.6613.186 Electron/32.2.5 Safari/537.36" version="26.0.7">
  <diagram name="Page-1" id="UloDCEB3wjo_zTowvmaE">
    <mxGraphModel dx="1434" dy="956" grid="1" gridSize="10" guides="1" tooltips="1" connect="1" arrows="1" fold="1" page="1" pageScale="1" pageWidth="850" pageHeight="1100" math="0" shadow="0">
      <root>
        <mxCell id="0" />
        <mxCell id="1" parent="0" />
        <mxCell id="J7hpU79LbpYoY3PpZGrj-1" value="«Component»&lt;br&gt;&lt;b&gt;Presentaion Component&lt;/b&gt;" style="html=1;dropTarget=0;whiteSpace=wrap;" vertex="1" parent="1">
          <mxGeometry x="330" y="211" width="180" height="90" as="geometry" />
        </mxCell>
        <mxCell id="J7hpU79LbpYoY3PpZGrj-2" value="" style="shape=module;jettyWidth=8;jettyHeight=4;" vertex="1" parent="J7hpU79LbpYoY3PpZGrj-1">
          <mxGeometry x="1" width="20" height="20" relative="1" as="geometry">
            <mxPoint x="-27" y="7" as="offset" />
          </mxGeometry>
        </mxCell>
        <mxCell id="J7hpU79LbpYoY3PpZGrj-6" value="«Component»&lt;br&gt;&lt;b&gt;API&amp;nbsp;&lt;/b&gt;&lt;b style=&quot;background-color: transparent; color: light-dark(rgb(0, 0, 0), rgb(255, 255, 255));&quot;&gt;Component&lt;/b&gt;" style="html=1;dropTarget=0;whiteSpace=wrap;" vertex="1" parent="1">
          <mxGeometry x="330" y="361" width="180" height="90" as="geometry" />
        </mxCell>
        <mxCell id="J7hpU79LbpYoY3PpZGrj-7" value="" style="shape=module;jettyWidth=8;jettyHeight=4;" vertex="1" parent="J7hpU79LbpYoY3PpZGrj-6">
          <mxGeometry x="1" width="20" height="20" relative="1" as="geometry">
            <mxPoint x="-27" y="7" as="offset" />
          </mxGeometry>
        </mxCell>
        <mxCell id="J7hpU79LbpYoY3PpZGrj-8" value="«Component»&lt;br&gt;&lt;b&gt;Core Component (Business Logic)&lt;/b&gt;" style="html=1;dropTarget=0;whiteSpace=wrap;" vertex="1" parent="1">
          <mxGeometry x="330" y="511" width="180" height="90" as="geometry" />
        </mxCell>
        <mxCell id="J7hpU79LbpYoY3PpZGrj-9" value="" style="shape=module;jettyWidth=8;jettyHeight=4;" vertex="1" parent="J7hpU79LbpYoY3PpZGrj-8">
          <mxGeometry x="1" width="20" height="20" relative="1" as="geometry">
            <mxPoint x="-27" y="7" as="offset" />
          </mxGeometry>
        </mxCell>
        <mxCell id="J7hpU79LbpYoY3PpZGrj-18" value="«Component»&lt;br&gt;&lt;b&gt;Infrastructure&amp;nbsp;&lt;/b&gt;" style="html=1;dropTarget=0;whiteSpace=wrap;" vertex="1" parent="1">
          <mxGeometry x="330" y="661" width="180" height="90" as="geometry" />
        </mxCell>
        <mxCell id="J7hpU79LbpYoY3PpZGrj-19" value="" style="shape=module;jettyWidth=8;jettyHeight=4;" vertex="1" parent="J7hpU79LbpYoY3PpZGrj-18">
          <mxGeometry x="1" width="20" height="20" relative="1" as="geometry">
            <mxPoint x="-27" y="7" as="offset" />
          </mxGeometry>
        </mxCell>
        <mxCell id="J7hpU79LbpYoY3PpZGrj-20" value="«Component»&lt;br&gt;&lt;b&gt;Relational storage&amp;nbsp;&amp;nbsp;&lt;/b&gt;" style="html=1;dropTarget=0;whiteSpace=wrap;" vertex="1" parent="1">
          <mxGeometry x="150" y="841" width="180" height="90" as="geometry" />
        </mxCell>
        <mxCell id="J7hpU79LbpYoY3PpZGrj-21" value="" style="shape=module;jettyWidth=8;jettyHeight=4;" vertex="1" parent="J7hpU79LbpYoY3PpZGrj-20">
          <mxGeometry x="1" width="20" height="20" relative="1" as="geometry">
            <mxPoint x="-27" y="7" as="offset" />
          </mxGeometry>
        </mxCell>
        <mxCell id="J7hpU79LbpYoY3PpZGrj-22" value="«Component»&lt;br&gt;&lt;b&gt;Document storage&amp;nbsp;&amp;nbsp;&lt;/b&gt;" style="html=1;dropTarget=0;whiteSpace=wrap;" vertex="1" parent="1">
          <mxGeometry x="510" y="841" width="180" height="90" as="geometry" />
        </mxCell>
        <mxCell id="J7hpU79LbpYoY3PpZGrj-23" value="" style="shape=module;jettyWidth=8;jettyHeight=4;" vertex="1" parent="J7hpU79LbpYoY3PpZGrj-22">
          <mxGeometry x="1" width="20" height="20" relative="1" as="geometry">
            <mxPoint x="-27" y="7" as="offset" />
          </mxGeometry>
        </mxCell>
        <mxCell id="J7hpU79LbpYoY3PpZGrj-24" value="«Component»&lt;br&gt;&lt;b&gt;Payment (Chapa API)&amp;nbsp;&amp;nbsp;&lt;/b&gt;" style="html=1;dropTarget=0;whiteSpace=wrap;" vertex="1" parent="1">
          <mxGeometry x="620" y="361" width="180" height="90" as="geometry" />
        </mxCell>
        <mxCell id="J7hpU79LbpYoY3PpZGrj-25" value="" style="shape=module;jettyWidth=8;jettyHeight=4;" vertex="1" parent="J7hpU79LbpYoY3PpZGrj-24">
          <mxGeometry x="1" width="20" height="20" relative="1" as="geometry">
            <mxPoint x="-27" y="7" as="offset" />
          </mxGeometry>
        </mxCell>
        <mxCell id="J7hpU79LbpYoY3PpZGrj-26" value="«Component»&lt;br&gt;&lt;b&gt;Authentication Provider&lt;/b&gt;&lt;b style=&quot;background-color: transparent; color: light-dark(rgb(0, 0, 0), rgb(255, 255, 255));&quot;&gt;&amp;nbsp;&amp;nbsp;&lt;/b&gt;" style="html=1;dropTarget=0;whiteSpace=wrap;" vertex="1" parent="1">
          <mxGeometry x="50" y="361" width="180" height="90" as="geometry" />
        </mxCell>
        <mxCell id="J7hpU79LbpYoY3PpZGrj-27" value="" style="shape=module;jettyWidth=8;jettyHeight=4;" vertex="1" parent="J7hpU79LbpYoY3PpZGrj-26">
          <mxGeometry x="1" width="20" height="20" relative="1" as="geometry">
            <mxPoint x="-27" y="7" as="offset" />
          </mxGeometry>
        </mxCell>
        <mxCell id="J7hpU79LbpYoY3PpZGrj-28" value="" style="rounded=0;orthogonalLoop=1;jettySize=auto;html=1;endArrow=halfCircle;endFill=0;endSize=6;strokeWidth=1;sketch=0;" edge="1" target="J7hpU79LbpYoY3PpZGrj-30" parent="1" source="J7hpU79LbpYoY3PpZGrj-6">
          <mxGeometry relative="1" as="geometry">
            <mxPoint x="440" y="334" as="sourcePoint" />
          </mxGeometry>
        </mxCell>
        <mxCell id="J7hpU79LbpYoY3PpZGrj-29" value="" style="rounded=0;orthogonalLoop=1;jettySize=auto;html=1;endArrow=oval;endFill=0;sketch=0;sourcePerimeterSpacing=0;targetPerimeterSpacing=0;endSize=10;" edge="1" target="J7hpU79LbpYoY3PpZGrj-30" parent="1" source="J7hpU79LbpYoY3PpZGrj-1">
          <mxGeometry relative="1" as="geometry">
            <mxPoint x="400" y="334" as="sourcePoint" />
          </mxGeometry>
        </mxCell>
        <mxCell id="J7hpU79LbpYoY3PpZGrj-30" value="" style="ellipse;whiteSpace=wrap;html=1;align=center;aspect=fixed;fillColor=none;strokeColor=none;resizable=0;perimeter=centerPerimeter;rotatable=0;allowArrows=0;points=[];outlineConnect=1;flipV=1;" vertex="1" parent="1">
          <mxGeometry x="415" y="328" width="10" height="10" as="geometry" />
        </mxCell>
        <mxCell id="J7hpU79LbpYoY3PpZGrj-42" value="" style="rounded=0;orthogonalLoop=1;jettySize=auto;html=1;endArrow=halfCircle;endFill=0;endSize=6;strokeWidth=1;sketch=0;" edge="1" parent="1" source="J7hpU79LbpYoY3PpZGrj-26">
          <mxGeometry relative="1" as="geometry">
            <mxPoint x="295" y="396" as="sourcePoint" />
            <mxPoint x="290" y="406" as="targetPoint" />
          </mxGeometry>
        </mxCell>
        <mxCell id="J7hpU79LbpYoY3PpZGrj-43" value="" style="rounded=0;orthogonalLoop=1;jettySize=auto;html=1;endArrow=oval;endFill=0;sketch=0;sourcePerimeterSpacing=0;targetPerimeterSpacing=0;endSize=10;" edge="1" parent="1" source="J7hpU79LbpYoY3PpZGrj-6">
          <mxGeometry relative="1" as="geometry">
            <mxPoint x="275" y="421" as="sourcePoint" />
            <mxPoint x="290" y="406" as="targetPoint" />
          </mxGeometry>
        </mxCell>
        <mxCell id="J7hpU79LbpYoY3PpZGrj-44" value="" style="ellipse;whiteSpace=wrap;html=1;align=center;aspect=fixed;fillColor=none;strokeColor=none;resizable=0;perimeter=centerPerimeter;rotatable=0;allowArrows=0;points=[];outlineConnect=1;" vertex="1" parent="1">
          <mxGeometry x="270" y="391" width="10" height="10" as="geometry" />
        </mxCell>
        <mxCell id="J7hpU79LbpYoY3PpZGrj-45" value="" style="rounded=0;orthogonalLoop=1;jettySize=auto;html=1;endArrow=halfCircle;endFill=0;endSize=6;strokeWidth=1;sketch=0;" edge="1" parent="1" target="J7hpU79LbpYoY3PpZGrj-47" source="J7hpU79LbpYoY3PpZGrj-24">
          <mxGeometry relative="1" as="geometry">
            <mxPoint x="595" y="406" as="sourcePoint" />
          </mxGeometry>
        </mxCell>
        <mxCell id="J7hpU79LbpYoY3PpZGrj-46" value="" style="rounded=0;orthogonalLoop=1;jettySize=auto;html=1;endArrow=oval;endFill=0;sketch=0;sourcePerimeterSpacing=0;targetPerimeterSpacing=0;endSize=10;" edge="1" parent="1" target="J7hpU79LbpYoY3PpZGrj-47" source="J7hpU79LbpYoY3PpZGrj-6">
          <mxGeometry relative="1" as="geometry">
            <mxPoint x="555" y="406" as="sourcePoint" />
          </mxGeometry>
        </mxCell>
        <mxCell id="J7hpU79LbpYoY3PpZGrj-47" value="" style="ellipse;whiteSpace=wrap;html=1;align=center;aspect=fixed;fillColor=none;strokeColor=none;resizable=0;perimeter=centerPerimeter;rotatable=0;allowArrows=0;points=[];outlineConnect=1;" vertex="1" parent="1">
          <mxGeometry x="570" y="401" width="10" height="10" as="geometry" />
        </mxCell>
        <mxCell id="J7hpU79LbpYoY3PpZGrj-48" value="" style="rounded=0;orthogonalLoop=1;jettySize=auto;html=1;endArrow=halfCircle;endFill=0;endSize=6;strokeWidth=1;sketch=0;" edge="1" parent="1" source="J7hpU79LbpYoY3PpZGrj-8">
          <mxGeometry relative="1" as="geometry">
            <mxPoint x="440" y="531" as="sourcePoint" />
            <mxPoint x="420" y="481" as="targetPoint" />
          </mxGeometry>
        </mxCell>
        <mxCell id="J7hpU79LbpYoY3PpZGrj-49" value="" style="rounded=0;orthogonalLoop=1;jettySize=auto;html=1;endArrow=oval;endFill=0;sketch=0;sourcePerimeterSpacing=0;targetPerimeterSpacing=0;endSize=10;" edge="1" parent="1" source="J7hpU79LbpYoY3PpZGrj-6">
          <mxGeometry relative="1" as="geometry">
            <mxPoint x="440" y="471" as="sourcePoint" />
            <mxPoint x="420" y="481" as="targetPoint" />
          </mxGeometry>
        </mxCell>
        <mxCell id="J7hpU79LbpYoY3PpZGrj-56" value="" style="rounded=0;orthogonalLoop=1;jettySize=auto;html=1;endArrow=halfCircle;endFill=0;endSize=6;strokeWidth=1;sketch=0;" edge="1" parent="1" source="J7hpU79LbpYoY3PpZGrj-8">
          <mxGeometry relative="1" as="geometry">
            <mxPoint x="470" y="621" as="sourcePoint" />
            <mxPoint x="420" y="641" as="targetPoint" />
          </mxGeometry>
        </mxCell>
        <mxCell id="J7hpU79LbpYoY3PpZGrj-58" value="" style="rounded=0;orthogonalLoop=1;jettySize=auto;html=1;endArrow=oval;endFill=0;sketch=0;sourcePerimeterSpacing=0;targetPerimeterSpacing=0;endSize=10;" edge="1" parent="1" source="J7hpU79LbpYoY3PpZGrj-18">
          <mxGeometry relative="1" as="geometry">
            <mxPoint x="370" y="631" as="sourcePoint" />
            <mxPoint x="420" y="641" as="targetPoint" />
          </mxGeometry>
        </mxCell>
        <mxCell id="J7hpU79LbpYoY3PpZGrj-59" value="" style="rounded=0;orthogonalLoop=1;jettySize=auto;html=1;endArrow=halfCircle;endFill=0;endSize=6;strokeWidth=1;sketch=0;" edge="1" parent="1" source="J7hpU79LbpYoY3PpZGrj-20">
          <mxGeometry relative="1" as="geometry">
            <mxPoint x="250" y="791" as="sourcePoint" />
            <mxPoint x="320" y="801" as="targetPoint" />
          </mxGeometry>
        </mxCell>
        <mxCell id="J7hpU79LbpYoY3PpZGrj-60" value="" style="rounded=0;orthogonalLoop=1;jettySize=auto;html=1;endArrow=oval;endFill=0;sketch=0;sourcePerimeterSpacing=0;targetPerimeterSpacing=0;endSize=10;" edge="1" parent="1" source="J7hpU79LbpYoY3PpZGrj-18">
          <mxGeometry relative="1" as="geometry">
            <mxPoint x="370" y="801" as="sourcePoint" />
            <mxPoint x="320" y="801" as="targetPoint" />
          </mxGeometry>
        </mxCell>
        <mxCell id="J7hpU79LbpYoY3PpZGrj-61" value="" style="rounded=0;orthogonalLoop=1;jettySize=auto;html=1;endArrow=oval;endFill=0;sketch=0;sourcePerimeterSpacing=0;targetPerimeterSpacing=0;endSize=10;" edge="1" parent="1" source="J7hpU79LbpYoY3PpZGrj-18">
          <mxGeometry relative="1" as="geometry">
            <mxPoint x="450" y="781" as="sourcePoint" />
            <mxPoint x="510" y="791" as="targetPoint" />
          </mxGeometry>
        </mxCell>
        <mxCell id="J7hpU79LbpYoY3PpZGrj-62" value="" style="rounded=0;orthogonalLoop=1;jettySize=auto;html=1;endArrow=halfCircle;endFill=0;endSize=6;strokeWidth=1;sketch=0;" edge="1" parent="1" source="J7hpU79LbpYoY3PpZGrj-22">
          <mxGeometry relative="1" as="geometry">
            <mxPoint x="298" y="851" as="sourcePoint" />
            <mxPoint x="510" y="791" as="targetPoint" />
          </mxGeometry>
        </mxCell>
      </root>
    </mxGraphModel>
  </diagram>
</mxfile>
